<svg id="visual" viewBox="0 0 1600 500" width="1600" height="500" xmlns="http://www.w3.org/2000/svg" xmlns:xlink="http://www.w3.org/1999/xlink" version="1.1"><rect x="0" y="0" width="1600" height="500" fill="#0563ca"></rect><path d="M0 211L19 218.3C38 225.7 76 240.3 114.2 252.3C152.3 264.3 190.7 273.7 228.8 268C267 262.3 305 241.7 343 234C381 226.3 419 231.7 457 238.2C495 244.7 533 252.3 571.2 259.8C609.3 267.3 647.7 274.7 685.8 280.2C724 285.7 762 289.3 800 293.2C838 297 876 301 914.2 290.2C952.3 279.3 990.7 253.7 1028.8 240.2C1067 226.7 1105 225.3 1143 234.3C1181 243.3 1219 262.7 1257 277.7C1295 292.7 1333 303.3 1371.2 291C1409.3 278.7 1447.7 243.3 1485.8 237.3C1524 231.3 1562 254.7 1581 266.3L1600 278L1600 501L1581 501C1562 501 1524 501 1485.8 501C1447.7 501 1409.3 501 1371.2 501C1333 501 1295 501 1257 501C1219 501 1181 501 1143 501C1105 501 1067 501 1028.8 501C990.7 501 952.3 501 914.2 501C876 501 838 501 800 501C762 501 724 501 685.8 501C647.7 501 609.3 501 571.2 501C533 501 495 501 457 501C419 501 381 501 343 501C305 501 267 501 228.8 501C190.7 501 152.3 501 114.2 501C76 501 38 501 19 501L0 501Z" fill="#0563ca"></path><path d="M0 278L19 277C38 276 76 274 114.2 277.7C152.3 281.3 190.7 290.7 228.8 291.5C267 292.3 305 284.7 343 285C381 285.3 419 293.7 457 288.7C495 283.7 533 265.3 571.2 259.5C609.3 253.7 647.7 260.3 685.8 274.5C724 288.7 762 310.3 800 309C838 307.7 876 283.3 914.2 278.8C952.3 274.3 990.7 289.7 1028.8 296.2C1067 302.7 1105 300.3 1143 292.8C1181 285.3 1219 272.7 1257 271.3C1295 270 1333 280 1371.2 291.5C1409.3 303 1447.7 316 1485.8 324.7C1524 333.3 1562 337.7 1581 339.8L1600 342L1600 501L1581 501C1562 501 1524 501 1485.8 501C1447.7 501 1409.3 501 1371.2 501C1333 501 1295 501 1257 501C1219 501 1181 501 1143 501C1105 501 1067 501 1028.8 501C990.7 501 952.3 501 914.2 501C876 501 838 501 800 501C762 501 724 501 685.8 501C647.7 501 609.3 501 571.2 501C533 501 495 501 457 501C419 501 381 501 343 501C305 501 267 501 228.8 501C190.7 501 152.3 501 114.2 501C76 501 38 501 19 501L0 501Z" fill="#005ab7"></path><path d="M0 291L19 295.3C38 299.7 76 308.3 114.2 311.8C152.3 315.3 190.7 313.7 228.8 310.8C267 308 305 304 343 306.7C381 309.3 419 318.7 457 328C495 337.3 533 346.7 571.2 343.2C609.3 339.7 647.7 323.3 685.8 324.7C724 326 762 345 800 344.3C838 343.7 876 323.3 914.2 314C952.3 304.7 990.7 306.3 1028.8 311.7C1067 317 1105 326 1143 322.2C1181 318.3 1219 301.7 1257 298.2C1295 294.7 1333 304.3 1371.2 318.3C1409.3 332.3 1447.7 350.7 1485.8 355.2C1524 359.7 1562 350.3 1581 345.7L1600 341L1600 501L1581 501C1562 501 1524 501 1485.8 501C1447.7 501 1409.3 501 1371.2 501C1333 501 1295 501 1257 501C1219 501 1181 501 1143 501C1105 501 1067 501 1028.8 501C990.7 501 952.3 501 914.2 501C876 501 838 501 800 501C762 501 724 501 685.8 501C647.7 501 609.3 501 571.2 501C533 501 495 501 457 501C419 501 381 501 343 501C305 501 267 501 228.8 501C190.7 501 152.3 501 114.2 501C76 501 38 501 19 501L0 501Z" fill="#0052a4"></path><path d="M0 333L19 335C38 337 76 341 114.2 343.2C152.3 345.3 190.7 345.7 228.8 343.3C267 341 305 336 343 343C381 350 419 369 457 373.2C495 377.3 533 366.7 571.2 366.5C609.3 366.3 647.7 376.7 685.8 377.5C724 378.3 762 369.7 800 363.2C838 356.7 876 352.3 914.2 357.8C952.3 363.3 990.7 378.7 1028.8 373.5C1067 368.3 1105 342.7 1143 338C1181 333.3 1219 349.7 1257 357.5C1295 365.3 1333 364.7 1371.2 364.5C1409.3 364.3 1447.7 364.7 1485.8 369.7C1524 374.7 1562 384.3 1581 389.2L1600 394L1600 501L1581 501C1562 501 1524 501 1485.8 501C1447.7 501 1409.3 501 1371.2 501C1333 501 1295 501 1257 501C1219 501 1181 501 1143 501C1105 501 1067 501 1028.8 501C990.7 501 952.3 501 914.2 501C876 501 838 501 800 501C762 501 724 501 685.8 501C647.7 501 609.3 501 571.2 501C533 501 495 501 457 501C419 501 381 501 343 501C305 501 267 501 228.8 501C190.7 501 152.3 501 114.2 501C76 501 38 501 19 501L0 501Z" fill="#004991"></path><path d="M0 409L19 404.7C38 400.3 76 391.7 114.2 386.3C152.3 381 190.7 379 228.8 375.7C267 372.3 305 367.7 343 367C381 366.3 419 369.7 457 368.7C495 367.7 533 362.3 571.2 359.8C609.3 357.3 647.7 357.7 685.8 357.8C724 358 762 358 800 366C838 374 876 390 914.2 389.8C952.3 389.7 990.7 373.3 1028.8 371.7C1067 370 1105 383 1143 384.7C1181 386.3 1219 376.7 1257 373.2C1295 369.7 1333 372.3 1371.2 376.3C1409.3 380.3 1447.7 385.7 1485.8 385.8C1524 386 1562 381 1581 378.5L1600 376L1600 501L1581 501C1562 501 1524 501 1485.8 501C1447.7 501 1409.3 501 1371.2 501C1333 501 1295 501 1257 501C1219 501 1181 501 1143 501C1105 501 1067 501 1028.8 501C990.7 501 952.3 501 914.2 501C876 501 838 501 800 501C762 501 724 501 685.8 501C647.7 501 609.3 501 571.2 501C533 501 495 501 457 501C419 501 381 501 343 501C305 501 267 501 228.8 501C190.7 501 152.3 501 114.2 501C76 501 38 501 19 501L0 501Z" fill="#01407f"></path><path d="M0 411L19 413.7C38 416.3 76 421.7 114.2 422.7C152.3 423.7 190.7 420.3 228.8 415.3C267 410.3 305 403.7 343 400.7C381 397.7 419 398.3 457 401.2C495 404 533 409 571.2 415.3C609.3 421.7 647.7 429.3 685.8 433C724 436.7 762 436.3 800 430.3C838 424.3 876 412.7 914.2 409.2C952.3 405.7 990.7 410.3 1028.8 414.5C1067 418.7 1105 422.3 1143 425.5C1181 428.7 1219 431.3 1257 430C1295 428.7 1333 423.3 1371.2 423.2C1409.3 423 1447.7 428 1485.8 424C1524 420 1562 407 1581 400.5L1600 394L1600 501L1581 501C1562 501 1524 501 1485.8 501C1447.7 501 1409.3 501 1371.2 501C1333 501 1295 501 1257 501C1219 501 1181 501 1143 501C1105 501 1067 501 1028.8 501C990.7 501 952.3 501 914.2 501C876 501 838 501 800 501C762 501 724 501 685.8 501C647.7 501 609.3 501 571.2 501C533 501 495 501 457 501C419 501 381 501 343 501C305 501 267 501 228.8 501C190.7 501 152.3 501 114.2 501C76 501 38 501 19 501L0 501Z" fill="#03386d"></path><path d="M0 432L19 436.7C38 441.3 76 450.7 114.2 455.2C152.3 459.7 190.7 459.3 228.8 454.8C267 450.3 305 441.7 343 437.7C381 433.7 419 434.3 457 435.5C495 436.7 533 438.3 571.2 442.2C609.3 446 647.7 452 685.8 450.3C724 448.7 762 439.3 800 438.7C838 438 876 446 914.2 449.8C952.3 453.7 990.7 453.3 1028.8 450C1067 446.7 1105 440.3 1143 440.2C1181 440 1219 446 1257 447.5C1295 449 1333 446 1371.2 443.8C1409.3 441.7 1447.7 440.3 1485.8 442.5C1524 444.7 1562 450.3 1581 453.2L1600 456L1600 501L1581 501C1562 501 1524 501 1485.8 501C1447.7 501 1409.3 501 1371.2 501C1333 501 1295 501 1257 501C1219 501 1181 501 1143 501C1105 501 1067 501 1028.8 501C990.7 501 952.3 501 914.2 501C876 501 838 501 800 501C762 501 724 501 685.8 501C647.7 501 609.3 501 571.2 501C533 501 495 501 457 501C419 501 381 501 343 501C305 501 267 501 228.8 501C190.7 501 152.3 501 114.2 501C76 501 38 501 19 501L0 501Z" fill="#052f5c"></path></svg>