<svg id="visual" viewBox="0 0 5000 500" width="5000" height="500" xmlns="http://www.w3.org/2000/svg" xmlns:xlink="http://www.w3.org/1999/xlink" version="1.1">
<rect x="0" y="0" width="5000" height="500" fill="#052f5c"></rect>
<path d="M0 358L75.8 358.7C151.7 359.3 303.3 360.7 454.8 359.3C606.3 358 757.7 354 909.2 342.3C1060.7 330.7 1212.3 311.3 1363.8 300.3C1515.3 289.3 1666.7 286.7 1818.2 306.2C1969.7 325.7 2121.3 367.3 2272.8 376.7C2424.3 386 2575.7 363 2727.2 338.8C2878.7 314.7 3030.3 289.3 3181.8 302C3333.3 314.7 3484.7 365.3 3636.2 379.3C3787.7 393.3 3939.3 370.7 4090.8 369.5C4242.3 368.3 4393.7 388.7 4545.2 398.7C4696.7 408.7 4848.3 408.3 4924.2 408.2L5000 408L5000 501L4924.2 501C4848.3 501 4696.7 501 4545.2 501C4393.7 501 4242.3 501 4090.8 501C3939.3 501 3787.7 501 3636.2 501C3484.7 501 3333.3 501 3181.8 501C3030.3 501 2878.7 501 2727.2 501C2575.7 501 2424.3 501 2272.8 501C2121.3 501 1969.7 501 1818.2 501C1666.7 501 1515.3 501 1363.8 501C1212.3 501 1060.7 501 909.2 501C757.7 501 606.3 501 454.8 501C303.3 501 151.7 501 75.8 501L0 501Z" fill="#001d3b"></path>
<path d="M0 469L75.8 444.8C151.7 420.7 303.3 372.3 454.8 351.2C606.3 330 757.7 336 909.2 360.2C1060.7 384.3 1212.3 426.7 1363.8 436.2C1515.3 445.7 1666.7 422.3 1818.2 417.7C1969.7 413 2121.3 427 2272.8 439C2424.3 451 2575.7 461 2727.2 460C2878.7 459 3030.3 447 3181.8 443.8C3333.3 440.7 3484.7 446.3 3636.2 431.8C3787.7 417.3 3939.3 382.7 4090.8 362C4242.3 341.3 4393.7 334.7 4545.2 336.5C4696.7 338.3 4848.3 348.7 4924.2 353.8L5000 359L5000 501L4924.2 501C4848.3 501 4696.7 501 4545.2 501C4393.7 501 4242.3 501 4090.8 501C3939.3 501 3787.7 501 3636.2 501C3484.7 501 3333.3 501 3181.8 501C3030.3 501 2878.7 501 2727.2 501C2575.7 501 2424.3 501 2272.8 501C2121.3 501 1969.7 501 1818.2 501C1666.7 501 1515.3 501 1363.8 501C1212.3 501 1060.7 501 909.2 501C757.7 501 606.3 501 454.8 501C303.3 501 151.7 501 75.8 501L0 501Z" fill="#031527"></path>
<path d="M0 480L75.8 477.2C151.7 474.3 303.3 468.7 454.8 464.3C606.3 460 757.7 457 909.2 460C1060.7 463 1212.3 472 1363.8 468.3C1515.3 464.7 1666.7 448.3 1818.2 434.7C1969.7 421 2121.3 410 2272.8 403.7C2424.3 397.3 2575.7 395.7 2727.2 409C2878.7 422.3 3030.3 450.7 3181.8 451.7C3333.3 452.7 3484.7 426.3 3636.2 419.7C3787.7 413 3939.3 426 4090.8 434.5C4242.3 443 4393.7 447 4545.2 451.5C4696.7 456 4848.3 461 4924.2 463.5L5000 466L5000 501L4924.2 501C4848.3 501 4696.7 501 4545.2 501C4393.7 501 4242.3 501 4090.8 501C3939.3 501 3787.7 501 3636.2 501C3484.7 501 3333.3 501 3181.8 501C3030.3 501 2878.7 501 2727.2 501C2575.7 501 2424.3 501 2272.8 501C2121.3 501 1969.7 501 1818.2 501C1666.7 501 1515.3 501 1363.8 501C1212.3 501 1060.7 501 909.2 501C757.7 501 606.3 501 454.8 501C303.3 501 151.7 501 75.8 501L0 501Z" fill="#000a14"></path>
</svg>