<svg id="visual" viewBox="0 0 1600 200" width="1600" height="200" xmlns="http://www.w3.org/2000/svg" xmlns:xlink="http://www.w3.org/1999/xlink" version="1.1"><rect x="0" y="0" width="1600" height="200" fill="#052f5c"></rect><path d="M0 116L22.2 112.5C44.3 109 88.7 102 133.2 95.5C177.7 89 222.3 83 266.8 83.3C311.3 83.7 355.7 90.3 400 96.8C444.3 103.3 488.7 109.7 533.2 116.5C577.7 123.3 622.3 130.7 666.8 125.3C711.3 120 755.7 102 800 89.2C844.3 76.3 888.7 68.7 933.2 66.5C977.7 64.3 1022.3 67.7 1066.8 79.8C1111.3 92 1155.7 113 1200 113.8C1244.3 114.7 1288.7 95.3 1333.2 94.5C1377.7 93.7 1422.3 111.3 1466.8 110.8C1511.3 110.3 1555.7 91.7 1577.8 82.3L1600 73L1600 201L1577.8 201C1555.7 201 1511.3 201 1466.8 201C1422.3 201 1377.7 201 1333.2 201C1288.7 201 1244.3 201 1200 201C1155.7 201 1111.3 201 1066.8 201C1022.3 201 977.7 201 933.2 201C888.7 201 844.3 201 800 201C755.7 201 711.3 201 666.8 201C622.3 201 577.7 201 533.2 201C488.7 201 444.3 201 400 201C355.7 201 311.3 201 266.8 201C222.3 201 177.7 201 133.2 201C88.7 201 44.3 201 22.2 201L0 201Z" fill="#052f5c"></path><path d="M0 78L22.2 85.2C44.3 92.3 88.7 106.7 133.2 107.5C177.7 108.3 222.3 95.7 266.8 90C311.3 84.3 355.7 85.7 400 84.7C444.3 83.7 488.7 80.3 533.2 89.7C577.7 99 622.3 121 666.8 121.3C711.3 121.7 755.7 100.3 800 89.8C844.3 79.3 888.7 79.7 933.2 85.3C977.7 91 1022.3 102 1066.8 110.3C1111.3 118.7 1155.7 124.3 1200 122.5C1244.3 120.7 1288.7 111.3 1333.2 111C1377.7 110.7 1422.3 119.3 1466.8 122C1511.3 124.7 1555.7 121.3 1577.8 119.7L1600 118L1600 201L1577.8 201C1555.7 201 1511.3 201 1466.8 201C1422.3 201 1377.7 201 1333.2 201C1288.7 201 1244.3 201 1200 201C1155.7 201 1111.3 201 1066.8 201C1022.3 201 977.7 201 933.2 201C888.7 201 844.3 201 800 201C755.7 201 711.3 201 666.8 201C622.3 201 577.7 201 533.2 201C488.7 201 444.3 201 400 201C355.7 201 311.3 201 266.8 201C222.3 201 177.7 201 133.2 201C88.7 201 44.3 201 22.2 201L0 201Z" fill="#032a50"></path><path d="M0 138L22.2 136.3C44.3 134.7 88.7 131.3 133.2 130.2C177.7 129 222.3 130 266.8 132.7C311.3 135.3 355.7 139.7 400 133.8C444.3 128 488.7 112 533.2 107.5C577.7 103 622.3 110 666.8 112.7C711.3 115.3 755.7 113.7 800 111.7C844.3 109.7 888.7 107.3 933.2 109.3C977.7 111.3 1022.3 117.7 1066.8 124.8C1111.3 132 1155.7 140 1200 139.7C1244.3 139.3 1288.7 130.7 1333.2 129.8C1377.7 129 1422.3 136 1466.8 132.5C1511.3 129 1555.7 115 1577.8 108L1600 101L1600 201L1577.8 201C1555.7 201 1511.3 201 1466.8 201C1422.3 201 1377.7 201 1333.2 201C1288.7 201 1244.3 201 1200 201C1155.7 201 1111.3 201 1066.8 201C1022.3 201 977.7 201 933.2 201C888.7 201 844.3 201 800 201C755.7 201 711.3 201 666.8 201C622.3 201 577.7 201 533.2 201C488.7 201 444.3 201 400 201C355.7 201 311.3 201 266.8 201C222.3 201 177.7 201 133.2 201C88.7 201 44.3 201 22.2 201L0 201Z" fill="#032444"></path><path d="M0 114L22.2 115.2C44.3 116.3 88.7 118.7 133.2 120.5C177.7 122.3 222.3 123.7 266.8 125.2C311.3 126.7 355.7 128.3 400 134.2C444.3 140 488.7 150 533.2 148.7C577.7 147.3 622.3 134.7 666.8 131.5C711.3 128.3 755.7 134.7 800 133.8C844.3 133 888.7 125 933.2 127.8C977.7 130.7 1022.3 144.3 1066.8 151.2C1111.3 158 1155.7 158 1200 153.2C1244.3 148.3 1288.7 138.7 1333.2 131.5C1377.7 124.3 1422.3 119.7 1466.8 123C1511.3 126.3 1555.7 137.7 1577.8 143.3L1600 149L1600 201L1577.8 201C1555.7 201 1511.3 201 1466.8 201C1422.3 201 1377.7 201 1333.2 201C1288.7 201 1244.3 201 1200 201C1155.7 201 1111.3 201 1066.8 201C1022.3 201 977.7 201 933.2 201C888.7 201 844.3 201 800 201C755.7 201 711.3 201 666.8 201C622.3 201 577.7 201 533.2 201C488.7 201 444.3 201 400 201C355.7 201 311.3 201 266.8 201C222.3 201 177.7 201 133.2 201C88.7 201 44.3 201 22.2 201L0 201Z" fill="#041f38"></path><path d="M0 146L22.2 148.7C44.3 151.3 88.7 156.7 133.2 157.8C177.7 159 222.3 156 266.8 154.8C311.3 153.7 355.7 154.3 400 152.8C444.3 151.3 488.7 147.7 533.2 144.5C577.7 141.3 622.3 138.7 666.8 139.3C711.3 140 755.7 144 800 145.7C844.3 147.3 888.7 146.7 933.2 145.5C977.7 144.3 1022.3 142.7 1066.8 142.5C1111.3 142.3 1155.7 143.7 1200 144.7C1244.3 145.7 1288.7 146.3 1333.2 149C1377.7 151.7 1422.3 156.3 1466.8 159.2C1511.3 162 1555.7 163 1577.8 163.5L1600 164L1600 201L1577.8 201C1555.7 201 1511.3 201 1466.8 201C1422.3 201 1377.7 201 1333.2 201C1288.7 201 1244.3 201 1200 201C1155.7 201 1111.3 201 1066.8 201C1022.3 201 977.7 201 933.2 201C888.7 201 844.3 201 800 201C755.7 201 711.3 201 666.8 201C622.3 201 577.7 201 533.2 201C488.7 201 444.3 201 400 201C355.7 201 311.3 201 266.8 201C222.3 201 177.7 201 133.2 201C88.7 201 44.3 201 22.2 201L0 201Z" fill="#05192c"></path><path d="M0 170L22.2 167.5C44.3 165 88.7 160 133.2 159.2C177.7 158.3 222.3 161.7 266.8 162.5C311.3 163.3 355.7 161.7 400 159.2C444.3 156.7 488.7 153.3 533.2 151.8C577.7 150.3 622.3 150.7 666.8 154.7C711.3 158.7 755.7 166.3 800 167.3C844.3 168.3 888.7 162.7 933.2 162.5C977.7 162.3 1022.3 167.7 1066.8 170.8C1111.3 174 1155.7 175 1200 171.7C1244.3 168.3 1288.7 160.7 1333.2 156C1377.7 151.3 1422.3 149.7 1466.8 152C1511.3 154.3 1555.7 160.7 1577.8 163.8L1600 167L1600 201L1577.8 201C1555.7 201 1511.3 201 1466.8 201C1422.3 201 1377.7 201 1333.2 201C1288.7 201 1244.3 201 1200 201C1155.7 201 1111.3 201 1066.8 201C1022.3 201 977.7 201 933.2 201C888.7 201 844.3 201 800 201C755.7 201 711.3 201 666.8 201C622.3 201 577.7 201 533.2 201C488.7 201 444.3 201 400 201C355.7 201 311.3 201 266.8 201C222.3 201 177.7 201 133.2 201C88.7 201 44.3 201 22.2 201L0 201Z" fill="#051321"></path><path d="M0 169L22.2 169.8C44.3 170.7 88.7 172.3 133.2 172.3C177.7 172.3 222.3 170.7 266.8 171.3C311.3 172 355.7 175 400 175C444.3 175 488.7 172 533.2 169.8C577.7 167.7 622.3 166.3 666.8 167.7C711.3 169 755.7 173 800 173.3C844.3 173.7 888.7 170.3 933.2 168.7C977.7 167 1022.3 167 1066.8 169.2C1111.3 171.3 1155.7 175.7 1200 175.7C1244.3 175.7 1288.7 171.3 1333.2 171.5C1377.7 171.7 1422.3 176.3 1466.8 177.5C1511.3 178.7 1555.7 176.3 1577.8 175.2L1600 174L1600 201L1577.8 201C1555.7 201 1511.3 201 1466.8 201C1422.3 201 1377.7 201 1333.2 201C1288.7 201 1244.3 201 1200 201C1155.7 201 1111.3 201 1066.8 201C1022.3 201 977.7 201 933.2 201C888.7 201 844.3 201 800 201C755.7 201 711.3 201 666.8 201C622.3 201 577.7 201 533.2 201C488.7 201 444.3 201 400 201C355.7 201 311.3 201 266.8 201C222.3 201 177.7 201 133.2 201C88.7 201 44.3 201 22.2 201L0 201Z" fill="#000b17"></path></svg>