<svg id="visual" viewBox="0 0 5000 500" width="5000" height="500" xmlns="http://www.w3.org/2000/svg" xmlns:xlink="http://www.w3.org/1999/xlink" version="1.1">
<rect x="0" y="0" width="5000" height="500" fill="#052f5c"></rect>
<path d="M0 286L75.8 290.7C151.7 295.3 303.3 304.7 454.8 321.2C606.3 337.7 757.7 361.3 909.2 373.2C1060.7 385 1212.3 385 1363.8 380.3C1515.3 375.7 1666.7 366.3 1818.2 362.2C1969.7 358 2121.3 359 2272.8 350.5C2424.3 342 2575.7 324 2727.2 324.5C2878.7 325 3030.3 344 3181.8 341.3C3333.3 338.7 3484.7 314.3 3636.2 300.8C3787.7 287.3 3939.3 284.7 4090.8 287C4242.3 289.3 4393.7 296.7 4545.2 316.5C4696.7 336.3 4848.3 368.7 4924.2 384.8L5000 401L5000 501L4924.2 501C4848.3 501 4696.7 501 4545.2 501C4393.7 501 4242.3 501 4090.8 501C3939.3 501 3787.7 501 3636.2 501C3484.7 501 3333.3 501 3181.8 501C3030.3 501 2878.7 501 2727.2 501C2575.7 501 2424.3 501 2272.8 501C2121.3 501 1969.7 501 1818.2 501C1666.7 501 1515.3 501 1363.8 501C1212.3 501 1060.7 501 909.2 501C757.7 501 606.3 501 454.8 501C303.3 501 151.7 501 75.8 501L0 501Z" fill="#001d3b"></path>
<path d="M0 414L75.8 408C151.7 402 303.3 390 454.8 390.7C606.3 391.3 757.7 404.7 909.2 405.5C1060.7 406.3 1212.3 394.7 1363.8 394.7C1515.3 394.7 1666.7 406.3 1818.2 404.8C1969.7 403.3 2121.3 388.7 2272.8 389.2C2424.3 389.7 2575.7 405.3 2727.2 413.5C2878.7 421.7 3030.3 422.3 3181.8 414.7C3333.3 407 3484.7 391 3636.2 391.2C3787.7 391.3 3939.3 407.7 4090.8 406.7C4242.3 405.7 4393.7 387.3 4545.2 375.3C4696.7 363.3 4848.3 357.7 4924.2 354.8L5000 352L5000 501L4924.2 501C4848.3 501 4696.7 501 4545.2 501C4393.7 501 4242.3 501 4090.8 501C3939.3 501 3787.7 501 3636.2 501C3484.7 501 3333.3 501 3181.8 501C3030.3 501 2878.7 501 2727.2 501C2575.7 501 2424.3 501 2272.8 501C2121.3 501 1969.7 501 1818.2 501C1666.7 501 1515.3 501 1363.8 501C1212.3 501 1060.7 501 909.2 501C757.7 501 606.3 501 454.8 501C303.3 501 151.7 501 75.8 501L0 501Z" fill="#031527"></path>
<path d="M0 476L75.8 475.3C151.7 474.7 303.3 473.3 454.8 462.8C606.3 452.3 757.7 432.7 909.2 426.3C1060.7 420 1212.3 427 1363.8 431.7C1515.3 436.3 1666.7 438.7 1818.2 435C1969.7 431.3 2121.3 421.7 2272.8 416.3C2424.3 411 2575.7 410 2727.2 418.7C2878.7 427.3 3030.3 445.7 3181.8 443.8C3333.3 442 3484.7 420 3636.2 416.8C3787.7 413.7 3939.3 429.3 4090.8 431.3C4242.3 433.3 4393.7 421.7 4545.2 419C4696.7 416.3 4848.3 422.7 4924.2 425.8L5000 429L5000 501L4924.2 501C4848.3 501 4696.7 501 4545.2 501C4393.7 501 4242.3 501 4090.8 501C3939.3 501 3787.7 501 3636.2 501C3484.7 501 3333.3 501 3181.8 501C3030.3 501 2878.7 501 2727.2 501C2575.7 501 2424.3 501 2272.8 501C2121.3 501 1969.7 501 1818.2 501C1666.7 501 1515.3 501 1363.8 501C1212.3 501 1060.7 501 909.2 501C757.7 501 606.3 501 454.8 501C303.3 501 151.7 501 75.8 501L0 501Z" fill="#000a14"></path>
</svg>