<svg id="visual" viewBox="0 0 1600 500" width="1600" height="500" xmlns="http://www.w3.org/2000/svg" xmlns:xlink="http://www.w3.org/1999/xlink" version="1.1"><path d="M0 268L19 272.3C38 276.7 76 285.3 114.2 282.8C152.3 280.3 190.7 266.7 228.8 255.5C267 244.3 305 235.7 343 233.5C381 231.3 419 235.7 457 243.5C495 251.3 533 262.7 571.2 274.7C609.3 286.7 647.7 299.3 685.8 296.2C724 293 762 274 800 256.8C838 239.7 876 224.3 914.2 233.2C952.3 242 990.7 275 1028.8 288C1067 301 1105 294 1143 283.5C1181 273 1219 259 1257 249.7C1295 240.3 1333 235.7 1371.2 243.3C1409.3 251 1447.7 271 1485.8 278.2C1524 285.3 1562 279.7 1581 276.8L1600 274L1600 501L1581 501C1562 501 1524 501 1485.8 501C1447.7 501 1409.3 501 1371.2 501C1333 501 1295 501 1257 501C1219 501 1181 501 1143 501C1105 501 1067 501 1028.8 501C990.7 501 952.3 501 914.2 501C876 501 838 501 800 501C762 501 724 501 685.8 501C647.7 501 609.3 501 571.2 501C533 501 495 501 457 501C419 501 381 501 343 501C305 501 267 501 228.8 501C190.7 501 152.3 501 114.2 501C76 501 38 501 19 501L0 501Z" fill="#66c2f5"></path><path d="M0 277L19 285C38 293 76 309 114.2 317C152.3 325 190.7 325 228.8 324.7C267 324.3 305 323.7 343 326.3C381 329 419 335 457 329.2C495 323.3 533 305.7 571.2 292C609.3 278.3 647.7 268.7 685.8 265.7C724 262.7 762 266.3 800 282.8C838 299.3 876 328.7 914.2 339.8C952.3 351 990.7 344 1028.8 327.3C1067 310.7 1105 284.3 1143 279.8C1181 275.3 1219 292.7 1257 292.7C1295 292.7 1333 275.3 1371.2 271.7C1409.3 268 1447.7 278 1485.8 289.7C1524 301.3 1562 314.7 1581 321.3L1600 328L1600 501L1581 501C1562 501 1524 501 1485.8 501C1447.7 501 1409.3 501 1371.2 501C1333 501 1295 501 1257 501C1219 501 1181 501 1143 501C1105 501 1067 501 1028.8 501C990.7 501 952.3 501 914.2 501C876 501 838 501 800 501C762 501 724 501 685.8 501C647.7 501 609.3 501 571.2 501C533 501 495 501 457 501C419 501 381 501 343 501C305 501 267 501 228.8 501C190.7 501 152.3 501 114.2 501C76 501 38 501 19 501L0 501Z" fill="#4fb3f0"></path><path d="M0 321L19 319.3C38 317.7 76 314.3 114.2 314.3C152.3 314.3 190.7 317.7 228.8 327.7C267 337.7 305 354.3 343 360C381 365.7 419 360.3 457 358.7C495 357 533 359 571.2 352.8C609.3 346.7 647.7 332.3 685.8 331.3C724 330.3 762 342.7 800 352C838 361.3 876 367.7 914.2 361.5C952.3 355.3 990.7 336.7 1028.8 336.5C1067 336.3 1105 354.7 1143 350.2C1181 345.7 1219 318.3 1257 306.3C1295 294.3 1333 297.7 1371.2 303.7C1409.3 309.7 1447.7 318.3 1485.8 329.8C1524 341.3 1562 355.7 1581 362.8L1600 370L1600 501L1581 501C1562 501 1524 501 1485.8 501C1447.7 501 1409.3 501 1371.2 501C1333 501 1295 501 1257 501C1219 501 1181 501 1143 501C1105 501 1067 501 1028.8 501C990.7 501 952.3 501 914.2 501C876 501 838 501 800 501C762 501 724 501 685.8 501C647.7 501 609.3 501 571.2 501C533 501 495 501 457 501C419 501 381 501 343 501C305 501 267 501 228.8 501C190.7 501 152.3 501 114.2 501C76 501 38 501 19 501L0 501Z" fill="#37a4ea"></path><path d="M0 397L19 387.8C38 378.7 76 360.3 114.2 353.8C152.3 347.3 190.7 352.7 228.8 357.7C267 362.7 305 367.3 343 371.5C381 375.7 419 379.3 457 377.5C495 375.7 533 368.3 571.2 368.7C609.3 369 647.7 377 685.8 382.8C724 388.7 762 392.3 800 387.3C838 382.3 876 368.7 914.2 368.3C952.3 368 990.7 381 1028.8 380.2C1067 379.3 1105 364.7 1143 359.5C1181 354.3 1219 358.7 1257 354.7C1295 350.7 1333 338.3 1371.2 336.8C1409.3 335.3 1447.7 344.7 1485.8 354.5C1524 364.3 1562 374.7 1581 379.8L1600 385L1600 501L1581 501C1562 501 1524 501 1485.8 501C1447.7 501 1409.3 501 1371.2 501C1333 501 1295 501 1257 501C1219 501 1181 501 1143 501C1105 501 1067 501 1028.8 501C990.7 501 952.3 501 914.2 501C876 501 838 501 800 501C762 501 724 501 685.8 501C647.7 501 609.3 501 571.2 501C533 501 495 501 457 501C419 501 381 501 343 501C305 501 267 501 228.8 501C190.7 501 152.3 501 114.2 501C76 501 38 501 19 501L0 501Z" fill="#1f94e4"></path><path d="M0 408L19 400C38 392 76 376 114.2 368C152.3 360 190.7 360 228.8 364.5C267 369 305 378 343 379.7C381 381.3 419 375.7 457 380.3C495 385 533 400 571.2 403C609.3 406 647.7 397 685.8 391C724 385 762 382 800 383.8C838 385.7 876 392.3 914.2 394.3C952.3 396.3 990.7 393.7 1028.8 397.2C1067 400.7 1105 410.3 1143 405.3C1181 400.3 1219 380.7 1257 370.5C1295 360.3 1333 359.7 1371.2 369C1409.3 378.3 1447.7 397.7 1485.8 403C1524 408.3 1562 399.7 1581 395.3L1600 391L1600 501L1581 501C1562 501 1524 501 1485.8 501C1447.7 501 1409.3 501 1371.2 501C1333 501 1295 501 1257 501C1219 501 1181 501 1143 501C1105 501 1067 501 1028.8 501C990.7 501 952.3 501 914.2 501C876 501 838 501 800 501C762 501 724 501 685.8 501C647.7 501 609.3 501 571.2 501C533 501 495 501 457 501C419 501 381 501 343 501C305 501 267 501 228.8 501C190.7 501 152.3 501 114.2 501C76 501 38 501 19 501L0 501Z" fill="#0384dd"></path><path d="M0 407L19 408.5C38 410 76 413 114.2 415.7C152.3 418.3 190.7 420.7 228.8 418C267 415.3 305 407.7 343 406.2C381 404.7 419 409.3 457 412.2C495 415 533 416 571.2 416.7C609.3 417.3 647.7 417.7 685.8 421.5C724 425.3 762 432.7 800 431C838 429.3 876 418.7 914.2 410.7C952.3 402.7 990.7 397.3 1028.8 397.2C1067 397 1105 402 1143 403.2C1181 404.3 1219 401.7 1257 405.7C1295 409.7 1333 420.3 1371.2 426C1409.3 431.7 1447.7 432.3 1485.8 425.3C1524 418.3 1562 403.7 1581 396.3L1600 389L1600 501L1581 501C1562 501 1524 501 1485.8 501C1447.7 501 1409.3 501 1371.2 501C1333 501 1295 501 1257 501C1219 501 1181 501 1143 501C1105 501 1067 501 1028.8 501C990.7 501 952.3 501 914.2 501C876 501 838 501 800 501C762 501 724 501 685.8 501C647.7 501 609.3 501 571.2 501C533 501 495 501 457 501C419 501 381 501 343 501C305 501 267 501 228.8 501C190.7 501 152.3 501 114.2 501C76 501 38 501 19 501L0 501Z" fill="#0074d4"></path><path d="M0 452L19 449.2C38 446.3 76 440.7 114.2 439.5C152.3 438.3 190.7 441.7 228.8 445.3C267 449 305 453 343 450.7C381 448.3 419 439.7 457 435.8C495 432 533 433 571.2 437.2C609.3 441.3 647.7 448.7 685.8 449.2C724 449.7 762 443.3 800 443.7C838 444 876 451 914.2 451.2C952.3 451.3 990.7 444.7 1028.8 441.3C1067 438 1105 438 1143 441C1181 444 1219 450 1257 448.2C1295 446.3 1333 436.7 1371.2 433.2C1409.3 429.7 1447.7 432.3 1485.8 436.5C1524 440.7 1562 446.3 1581 449.2L1600 452L1600 501L1581 501C1562 501 1524 501 1485.8 501C1447.7 501 1409.3 501 1371.2 501C1333 501 1295 501 1257 501C1219 501 1181 501 1143 501C1105 501 1067 501 1028.8 501C990.7 501 952.3 501 914.2 501C876 501 838 501 800 501C762 501 724 501 685.8 501C647.7 501 609.3 501 571.2 501C533 501 495 501 457 501C419 501 381 501 343 501C305 501 267 501 228.8 501C190.7 501 152.3 501 114.2 501C76 501 38 501 19 501L0 501Z" fill="#0563ca"></path></svg>