<svg id="visual" viewBox="0 0 5000 500" width="5000" height="500" xmlns="http://www.w3.org/2000/svg" xmlns:xlink="http://www.w3.org/1999/xlink" version="1.1">
<rect x="0" y="0" width="5000" height="500" fill="#052f5c"></rect>
<path d="M0 94L75.8 111.3C151.7 128.7 303.3 163.3 454.8 181.8C606.3 200.3 757.7 202.7 909.2 188.2C1060.7 173.7 1212.3 142.3 1363.8 146C1515.3 149.7 1666.7 188.3 1818.2 192.5C1969.7 196.7 2121.3 166.3 2272.8 129.5C2424.3 92.7 2575.7 49.3 2727.2 78.2C2878.7 107 3030.3 208 3181.8 212.2C3333.3 216.3 3484.7 123.7 3636.2 110.8C3787.7 98 3939.3 165 4090.8 221.8C4242.3 278.7 4393.7 325.3 4545.2 325.7C4696.7 326 4848.3 280 4924.2 257L5000 234L5000 501L4924.2 501C4848.3 501 4696.7 501 4545.2 501C4393.7 501 4242.3 501 4090.8 501C3939.3 501 3787.7 501 3636.2 501C3484.7 501 3333.3 501 3181.8 501C3030.3 501 2878.7 501 2727.2 501C2575.7 501 2424.3 501 2272.8 501C2121.3 501 1969.7 501 1818.2 501C1666.7 501 1515.3 501 1363.8 501C1212.3 501 1060.7 501 909.2 501C757.7 501 606.3 501 454.8 501C303.3 501 151.7 501 75.8 501L0 501Z" fill="#001d3b"></path>
<path d="M0 347L75.8 343C151.7 339 303.3 331 454.8 300.5C606.3 270 757.7 217 909.2 206.7C1060.7 196.3 1212.3 228.7 1363.8 253.3C1515.3 278 1666.7 295 1818.2 295.5C1969.7 296 2121.3 280 2272.8 260.3C2424.3 240.7 2575.7 217.3 2727.2 247C2878.7 276.7 3030.3 359.3 3181.8 400.7C3333.3 442 3484.7 442 3636.2 415.5C3787.7 389 3939.3 336 4090.8 294C4242.3 252 4393.7 221 4545.2 245.8C4696.7 270.7 4848.3 351.3 4924.2 391.7L5000 432L5000 501L4924.2 501C4848.3 501 4696.7 501 4545.2 501C4393.7 501 4242.3 501 4090.8 501C3939.3 501 3787.7 501 3636.2 501C3484.7 501 3333.3 501 3181.8 501C3030.3 501 2878.7 501 2727.2 501C2575.7 501 2424.3 501 2272.8 501C2121.3 501 1969.7 501 1818.2 501C1666.7 501 1515.3 501 1363.8 501C1212.3 501 1060.7 501 909.2 501C757.7 501 606.3 501 454.8 501C303.3 501 151.7 501 75.8 501L0 501Z" fill="#031527"></path>
<path d="M0 481L75.8 476.5C151.7 472 303.3 463 454.8 452C606.3 441 757.7 428 909.2 429.5C1060.7 431 1212.3 447 1363.8 445C1515.3 443 1666.7 423 1818.2 394.2C1969.7 365.3 2121.3 327.7 2272.8 304.5C2424.3 281.3 2575.7 272.7 2727.2 302.8C2878.7 333 3030.3 402 3181.8 416.5C3333.3 431 3484.7 391 3636.2 378C3787.7 365 3939.3 379 4090.8 379.2C4242.3 379.3 4393.7 365.7 4545.2 375.2C4696.7 384.7 4848.3 417.3 4924.2 433.7L5000 450L5000 501L4924.2 501C4848.3 501 4696.7 501 4545.2 501C4393.7 501 4242.3 501 4090.8 501C3939.3 501 3787.7 501 3636.2 501C3484.7 501 3333.3 501 3181.8 501C3030.3 501 2878.7 501 2727.2 501C2575.7 501 2424.3 501 2272.8 501C2121.3 501 1969.7 501 1818.2 501C1666.7 501 1515.3 501 1363.8 501C1212.3 501 1060.7 501 909.2 501C757.7 501 606.3 501 454.8 501C303.3 501 151.7 501 75.8 501L0 501Z" fill="#000a14"></path>
</svg>