<svg id="visual" viewBox="0 0 1600 500" width="1600" height="500" xmlns="http://www.w3.org/2000/svg" xmlns:xlink="http://www.w3.org/1999/xlink" version="1.1">
<rect x="0" y="0" width="1600" height="500" fill="#0563ca"></rect>
<path d="M0 349L14.8 339.2C29.7 329.3 59.3 309.7 89 303.8C118.7 298 148.3 306 178 312C207.7 318 237.3 322 267 324C296.7 326 326.3 326 355.8 323C385.3 320 414.7 314 444.2 316.5C473.7 319 503.3 330 533 332.8C562.7 335.7 592.3 330.3 622 332.7C651.7 335 681.3 345 711 341.3C740.7 337.7 770.3 320.3 800 312.7C829.7 305 859.3 307 889 312.3C918.7 317.7 948.3 326.3 978 327.5C1007.7 328.7 1037.3 322.3 1067 326.8C1096.7 331.3 1126.3 346.7 1155.8 342.3C1185.3 338 1214.7 314 1244.2 311.2C1273.7 308.3 1303.3 326.7 1333 337.5C1362.7 348.3 1392.3 351.7 1422 343.2C1451.7 334.7 1481.3 314.3 1511 301.8C1540.7 289.3 1570.3 284.7 1585.2 282.3L1600 280L1600 501L1585.2 501C1570.3 501 1540.7 501 1511 501C1481.3 501 1451.7 501 1422 501C1392.3 501 1362.7 501 1333 501C1303.3 501 1273.7 501 1244.2 501C1214.7 501 1185.3 501 1155.8 501C1126.3 501 1096.7 501 1067 501C1037.3 501 1007.7 501 978 501C948.3 501 918.7 501 889 501C859.3 501 829.7 501 800 501C770.3 501 740.7 501 711 501C681.3 501 651.7 501 622 501C592.3 501 562.7 501 533 501C503.3 501 473.7 501 444.2 501C414.7 501 385.3 501 355.8 501C326.3 501 296.7 501 267 501C237.3 501 207.7 501 178 501C148.3 501 118.7 501 89 501C59.3 501 29.7 501 14.8 501L0 501Z" fill="#0056ad"></path>
<path d="M0 326L14.8 335.5C29.7 345 59.3 364 89 374.5C118.7 385 148.3 387 178 380.2C207.7 373.3 237.3 357.7 267 353.5C296.7 349.3 326.3 356.7 355.8 354.2C385.3 351.7 414.7 339.3 444.2 341C473.7 342.7 503.3 358.3 533 367.8C562.7 377.3 592.3 380.7 622 381.5C651.7 382.3 681.3 380.7 711 375C740.7 369.3 770.3 359.7 800 355.5C829.7 351.3 859.3 352.7 889 355.2C918.7 357.7 948.3 361.3 978 356.3C1007.7 351.3 1037.3 337.7 1067 337.5C1096.7 337.3 1126.3 350.7 1155.8 352.5C1185.3 354.3 1214.7 344.7 1244.2 347.7C1273.7 350.7 1303.3 366.3 1333 371.2C1362.7 376 1392.3 370 1422 368C1451.7 366 1481.3 368 1511 362.7C1540.7 357.3 1570.3 344.7 1585.2 338.3L1600 332L1600 501L1585.2 501C1570.3 501 1540.7 501 1511 501C1481.3 501 1451.7 501 1422 501C1392.3 501 1362.7 501 1333 501C1303.3 501 1273.7 501 1244.2 501C1214.7 501 1185.3 501 1155.8 501C1126.3 501 1096.7 501 1067 501C1037.3 501 1007.7 501 978 501C948.3 501 918.7 501 889 501C859.3 501 829.7 501 800 501C770.3 501 740.7 501 711 501C681.3 501 651.7 501 622 501C592.3 501 562.7 501 533 501C503.3 501 473.7 501 444.2 501C414.7 501 385.3 501 355.8 501C326.3 501 296.7 501 267 501C237.3 501 207.7 501 178 501C148.3 501 118.7 501 89 501C59.3 501 29.7 501 14.8 501L0 501Z" fill="#004991"></path>
<path d="M0 412L14.8 406.7C29.7 401.3 59.3 390.7 89 390.5C118.7 390.3 148.3 400.7 178 402.5C207.7 404.3 237.3 397.7 267 397.2C296.7 396.7 326.3 402.3 355.8 408C385.3 413.7 414.7 419.3 444.2 419.2C473.7 419 503.3 413 533 408.3C562.7 403.7 592.3 400.3 622 396.5C651.7 392.7 681.3 388.3 711 390.2C740.7 392 770.3 400 800 405.2C829.7 410.3 859.3 412.7 889 410.3C918.7 408 948.3 401 978 397.8C1007.7 394.7 1037.3 395.3 1067 400C1096.7 404.7 1126.3 413.3 1155.8 413.3C1185.3 413.3 1214.7 404.7 1244.2 403.2C1273.7 401.7 1303.3 407.3 1333 405.3C1362.7 403.3 1392.3 393.7 1422 396C1451.7 398.3 1481.3 412.7 1511 411.7C1540.7 410.7 1570.3 394.3 1585.2 386.2L1600 378L1600 501L1585.2 501C1570.3 501 1540.7 501 1511 501C1481.3 501 1451.7 501 1422 501C1392.3 501 1362.7 501 1333 501C1303.3 501 1273.7 501 1244.2 501C1214.7 501 1185.3 501 1155.8 501C1126.3 501 1096.7 501 1067 501C1037.3 501 1007.7 501 978 501C948.3 501 918.7 501 889 501C859.3 501 829.7 501 800 501C770.3 501 740.7 501 711 501C681.3 501 651.7 501 622 501C592.3 501 562.7 501 533 501C503.3 501 473.7 501 444.2 501C414.7 501 385.3 501 355.8 501C326.3 501 296.7 501 267 501C237.3 501 207.7 501 178 501C148.3 501 118.7 501 89 501C59.3 501 29.7 501 14.8 501L0 501Z" fill="#023c76"></path>
<path d="M0 454L14.8 451C29.7 448 59.3 442 89 441.3C118.7 440.7 148.3 445.3 178 448.5C207.7 451.7 237.3 453.3 267 449.8C296.7 446.3 326.3 437.7 355.8 438.8C385.3 440 414.7 451 444.2 449.5C473.7 448 503.3 434 533 427.3C562.7 420.7 592.3 421.3 622 425.7C651.7 430 681.3 438 711 439.2C740.7 440.3 770.3 434.7 800 431.7C829.7 428.7 859.3 428.3 889 430C918.7 431.7 948.3 435.3 978 438C1007.7 440.7 1037.3 442.3 1067 443.7C1096.7 445 1126.3 446 1155.8 443.8C1185.3 441.7 1214.7 436.3 1244.2 432C1273.7 427.7 1303.3 424.3 1333 424.5C1362.7 424.7 1392.3 428.3 1422 430.5C1451.7 432.7 1481.3 433.3 1511 436.7C1540.7 440 1570.3 446 1585.2 449L1600 452L1600 501L1585.2 501C1570.3 501 1540.7 501 1511 501C1481.3 501 1451.7 501 1422 501C1392.3 501 1362.7 501 1333 501C1303.3 501 1273.7 501 1244.2 501C1214.7 501 1185.3 501 1155.8 501C1126.3 501 1096.7 501 1067 501C1037.3 501 1007.7 501 978 501C948.3 501 918.7 501 889 501C859.3 501 829.7 501 800 501C770.3 501 740.7 501 711 501C681.3 501 651.7 501 622 501C592.3 501 562.7 501 533 501C503.3 501 473.7 501 444.2 501C414.7 501 385.3 501 355.8 501C326.3 501 296.7 501 267 501C237.3 501 207.7 501 178 501C148.3 501 118.7 501 89 501C59.3 501 29.7 501 14.8 501L0 501Z" fill="#052f5c"></path>

</svg>