<svg id="visual" viewBox="0 0 5000 500" width="5000" height="500" xmlns="http://www.w3.org/2000/svg" xmlns:xlink="http://www.w3.org/1999/xlink" version="1.1">
<path d="M0 281L69.5 280.5C139 280 278 279 416.8 273.7C555.7 268.3 694.3 258.7 833.2 254.3C972 250 1111 251 1250 258.8C1389 266.7 1528 281.3 1666.8 279.3C1805.7 277.3 1944.3 258.7 2083.2 252.8C2222 247 2361 254 2500 265C2639 276 2778 291 2916.8 296.7C3055.7 302.3 3194.3 298.7 3333.2 298.3C3472 298 3611 301 3750 302.7C3889 304.3 4028 304.7 4166.8 304.5C4305.7 304.3 4444.3 303.7 4583.2 301.5C4722 299.3 4861 295.7 4930.5 293.8L5000 292L5000 501L4930.5 501C4861 501 4722 501 4583.2 501C4444.3 501 4305.7 501 4166.8 501C4028 501 3889 501 3750 501C3611 501 3472 501 3333.2 501C3194.3 501 3055.7 501 2916.8 501C2778 501 2639 501 2500 501C2361 501 2222 501 2083.2 501C1944.3 501 1805.7 501 1666.8 501C1528 501 1389 501 1250 501C1111 501 972 501 833.2 501C694.3 501 555.7 501 416.8 501C278 501 139 501 69.5 501L0 501Z" fill="#66c2f5"></path>
<path d="M0 290L69.5 293.2C139 296.3 278 302.7 416.8 303.2C555.7 303.7 694.3 298.3 833.2 300C972 301.7 1111 310.3 1250 312.2C1389 314 1528 309 1666.8 307C1805.7 305 1944.3 306 2083.2 304.5C2222 303 2361 299 2500 296.2C2639 293.3 2778 291.7 2916.8 288.5C3055.7 285.3 3194.3 280.7 3333.2 278C3472 275.3 3611 274.7 3750 279.7C3889 284.7 4028 295.3 4166.8 303.3C4305.7 311.3 4444.3 316.7 4583.2 313.3C4722 310 4861 298 4930.5 292L5000 286L5000 501L4930.5 501C4861 501 4722 501 4583.2 501C4444.3 501 4305.7 501 4166.8 501C4028 501 3889 501 3750 501C3611 501 3472 501 3333.2 501C3194.3 501 3055.7 501 2916.8 501C2778 501 2639 501 2500 501C2361 501 2222 501 2083.2 501C1944.3 501 1805.7 501 1666.8 501C1528 501 1389 501 1250 501C1111 501 972 501 833.2 501C694.3 501 555.7 501 416.8 501C278 501 139 501 69.5 501L0 501Z" fill="#4fb3f0"></path>
<path d="M0 306L69.5 307.5C139 309 278 312 416.8 319.2C555.7 326.3 694.3 337.7 833.2 337.3C972 337 1111 325 1250 327C1389 329 1528 345 1666.8 351.8C1805.7 358.7 1944.3 356.3 2083.2 348.2C2222 340 2361 326 2500 318.5C2639 311 2778 310 2916.8 316.5C3055.7 323 3194.3 337 3333.2 340.2C3472 343.3 3611 335.7 3750 328C3889 320.3 4028 312.7 4166.8 312C4305.7 311.3 4444.3 317.7 4583.2 320.2C4722 322.7 4861 321.3 4930.5 320.7L5000 320L5000 501L4930.5 501C4861 501 4722 501 4583.2 501C4444.3 501 4305.7 501 4166.8 501C4028 501 3889 501 3750 501C3611 501 3472 501 3333.2 501C3194.3 501 3055.7 501 2916.8 501C2778 501 2639 501 2500 501C2361 501 2222 501 2083.2 501C1944.3 501 1805.7 501 1666.8 501C1528 501 1389 501 1250 501C1111 501 972 501 833.2 501C694.3 501 555.7 501 416.8 501C278 501 139 501 69.5 501L0 501Z" fill="#37a4ea"></path>
<path d="M0 369L69.5 369.3C139 369.7 278 370.3 416.8 369.2C555.7 368 694.3 365 833.2 362.2C972 359.3 1111 356.7 1250 356.5C1389 356.3 1528 358.7 1666.8 358C1805.7 357.3 1944.3 353.7 2083.2 355C2222 356.3 2361 362.7 2500 365.7C2639 368.7 2778 368.3 2916.8 364.8C3055.7 361.3 3194.3 354.7 3333.2 350.7C3472 346.7 3611 345.3 3750 346.7C3889 348 4028 352 4166.8 357.8C4305.7 363.7 4444.3 371.3 4583.2 376.3C4722 381.3 4861 383.7 4930.5 384.8L5000 386L5000 501L4930.5 501C4861 501 4722 501 4583.2 501C4444.3 501 4305.7 501 4166.8 501C4028 501 3889 501 3750 501C3611 501 3472 501 3333.2 501C3194.3 501 3055.7 501 2916.8 501C2778 501 2639 501 2500 501C2361 501 2222 501 2083.2 501C1944.3 501 1805.7 501 1666.8 501C1528 501 1389 501 1250 501C1111 501 972 501 833.2 501C694.3 501 555.7 501 416.8 501C278 501 139 501 69.5 501L0 501Z" fill="#1f94e4"></path>
<path d="M0 393L69.5 393.7C139 394.3 278 395.7 416.8 396.3C555.7 397 694.3 397 833.2 395.2C972 393.3 1111 389.7 1250 389.7C1389 389.7 1528 393.3 1666.8 393.2C1805.7 393 1944.3 389 2083.2 390.8C2222 392.7 2361 400.3 2500 400.5C2639 400.7 2778 393.3 2916.8 391.8C3055.7 390.3 3194.3 394.7 3333.2 395.5C3472 396.3 3611 393.7 3750 394.5C3889 395.3 4028 399.7 4166.8 399.3C4305.7 399 4444.3 394 4583.2 393.8C4722 393.7 4861 398.3 4930.5 400.7L5000 403L5000 501L4930.5 501C4861 501 4722 501 4583.2 501C4444.3 501 4305.7 501 4166.8 501C4028 501 3889 501 3750 501C3611 501 3472 501 3333.2 501C3194.3 501 3055.7 501 2916.8 501C2778 501 2639 501 2500 501C2361 501 2222 501 2083.2 501C1944.3 501 1805.7 501 1666.8 501C1528 501 1389 501 1250 501C1111 501 972 501 833.2 501C694.3 501 555.7 501 416.8 501C278 501 139 501 69.5 501L0 501Z" fill="#0384dd"></path>
<path d="M0 431L69.5 431.2C139 431.3 278 431.7 416.8 428.5C555.7 425.3 694.3 418.7 833.2 419.3C972 420 1111 428 1250 430C1389 432 1528 428 1666.8 424.2C1805.7 420.3 1944.3 416.7 2083.2 419.5C2222 422.3 2361 431.7 2500 435.5C2639 439.3 2778 437.7 2916.8 437.3C3055.7 437 3194.3 438 3333.2 438.2C3472 438.3 3611 437.7 3750 432.8C3889 428 4028 419 4166.8 415.3C4305.7 411.7 4444.3 413.3 4583.2 415.8C4722 418.3 4861 421.7 4930.5 423.3L5000 425L5000 501L4930.5 501C4861 501 4722 501 4583.2 501C4444.3 501 4305.7 501 4166.8 501C4028 501 3889 501 3750 501C3611 501 3472 501 3333.2 501C3194.3 501 3055.7 501 2916.8 501C2778 501 2639 501 2500 501C2361 501 2222 501 2083.2 501C1944.3 501 1805.7 501 1666.8 501C1528 501 1389 501 1250 501C1111 501 972 501 833.2 501C694.3 501 555.7 501 416.8 501C278 501 139 501 69.5 501L0 501Z" fill="#0074d4"></path>
<path d="M0 459L69.5 456.3C139 453.7 278 448.3 416.8 448.2C555.7 448 694.3 453 833.2 456C972 459 1111 460 1250 459.3C1389 458.7 1528 456.3 1666.8 455.7C1805.7 455 1944.3 456 2083.2 455.3C2222 454.7 2361 452.3 2500 450.7C2639 449 2778 448 2916.8 447C3055.7 446 3194.3 445 3333.2 445C3472 445 3611 446 3750 449.5C3889 453 4028 459 4166.8 462.5C4305.7 466 4444.3 467 4583.2 466.2C4722 465.3 4861 462.7 4930.5 461.3L5000 460L5000 501L4930.5 501C4861 501 4722 501 4583.2 501C4444.3 501 4305.7 501 4166.8 501C4028 501 3889 501 3750 501C3611 501 3472 501 3333.2 501C3194.3 501 3055.7 501 2916.8 501C2778 501 2639 501 2500 501C2361 501 2222 501 2083.2 501C1944.3 501 1805.7 501 1666.8 501C1528 501 1389 501 1250 501C1111 501 972 501 833.2 501C694.3 501 555.7 501 416.8 501C278 501 139 501 69.5 501L0 501Z" fill="#0563ca"></path>
</svg>