<svg id="visual" viewBox="0 0 1600 500" width="1600" height="500" xmlns="http://www.w3.org/2000/svg" xmlns:xlink="http://www.w3.org/1999/xlink" version="1.1"><rect x="0" y="0" width="1600" height="500" fill="#0563ca"></rect>
<path d="M0 293L14.8 285.7C29.7 278.3 59.3 263.7 89 259.2C118.7 254.7 148.3 260.3 178 264.5C207.7 268.7 237.3 271.3 267 268C296.7 264.7 326.3 255.3 355.8 260.3C385.3 265.3 414.7 284.7 444.2 304C473.7 323.3 503.3 342.7 533 345.8C562.7 349 592.3 336 622 333.3C651.7 330.7 681.3 338.3 711 328C740.7 317.7 770.3 289.3 800 295C829.7 300.7 859.3 340.3 889 356.2C918.7 372 948.3 364 978 352.2C1007.7 340.3 1037.3 324.7 1067 326.7C1096.7 328.7 1126.3 348.3 1155.8 342.5C1185.3 336.7 1214.7 305.3 1244.2 308.5C1273.7 311.7 1303.3 349.3 1333 351.5C1362.7 353.7 1392.3 320.3 1422 318.7C1451.7 317 1481.3 347 1511 346C1540.7 345 1570.3 313 1585.2 297L1600 281L1600 501L1585.2 501C1570.3 501 1540.7 501 1511 501C1481.3 501 1451.7 501 1422 501C1392.3 501 1362.7 501 1333 501C1303.3 501 1273.7 501 1244.2 501C1214.7 501 1185.3 501 1155.8 501C1126.3 501 1096.7 501 1067 501C1037.3 501 1007.7 501 978 501C948.3 501 918.7 501 889 501C859.3 501 829.7 501 800 501C770.3 501 740.7 501 711 501C681.3 501 651.7 501 622 501C592.3 501 562.7 501 533 501C503.3 501 473.7 501 444.2 501C414.7 501 385.3 501 355.8 501C326.3 501 296.7 501 267 501C237.3 501 207.7 501 178 501C148.3 501 118.7 501 89 501C59.3 501 29.7 501 14.8 501L0 501Z" fill="#0056ad"></path>
<path d="M0 303L14.8 310.8C29.7 318.7 59.3 334.3 89 340.7C118.7 347 148.3 344 178 339.2C207.7 334.3 237.3 327.7 267 325.7C296.7 323.7 326.3 326.3 355.8 336.2C385.3 346 414.7 363 444.2 369.3C473.7 375.7 503.3 371.3 533 369.7C562.7 368 592.3 369 622 376.5C651.7 384 681.3 398 711 386.5C740.7 375 770.3 338 800 321.5C829.7 305 859.3 309 889 325.3C918.7 341.7 948.3 370.3 978 378.3C1007.7 386.3 1037.3 373.7 1067 365.2C1096.7 356.7 1126.3 352.3 1155.8 344.2C1185.3 336 1214.7 324 1244.2 322.8C1273.7 321.7 1303.3 331.3 1333 337.5C1362.7 343.7 1392.3 346.3 1422 351.8C1451.7 357.3 1481.3 365.7 1511 361.8C1540.7 358 1570.3 342 1585.2 334L1600 326L1600 501L1585.2 501C1570.3 501 1540.7 501 1511 501C1481.3 501 1451.7 501 1422 501C1392.3 501 1362.7 501 1333 501C1303.3 501 1273.7 501 1244.2 501C1214.7 501 1185.3 501 1155.8 501C1126.3 501 1096.7 501 1067 501C1037.3 501 1007.7 501 978 501C948.3 501 918.7 501 889 501C859.3 501 829.7 501 800 501C770.3 501 740.7 501 711 501C681.3 501 651.7 501 622 501C592.3 501 562.7 501 533 501C503.3 501 473.7 501 444.2 501C414.7 501 385.3 501 355.8 501C326.3 501 296.7 501 267 501C237.3 501 207.7 501 178 501C148.3 501 118.7 501 89 501C59.3 501 29.7 501 14.8 501L0 501Z" fill="#004991"></path>
<path d="M0 379L14.8 383.3C29.7 387.7 59.3 396.3 89 394.3C118.7 392.3 148.3 379.7 178 370.7C207.7 361.7 237.3 356.3 267 362C296.7 367.7 326.3 384.3 355.8 396.2C385.3 408 414.7 415 444.2 413.7C473.7 412.3 503.3 402.7 533 401.5C562.7 400.3 592.3 407.7 622 407.5C651.7 407.3 681.3 399.7 711 395.2C740.7 390.7 770.3 389.3 800 382.2C829.7 375 859.3 362 889 370C918.7 378 948.3 407 978 417C1007.7 427 1037.3 418 1067 405.3C1096.7 392.7 1126.3 376.3 1155.8 381.2C1185.3 386 1214.7 412 1244.2 422.2C1273.7 432.3 1303.3 426.7 1333 421.3C1362.7 416 1392.3 411 1422 401.8C1451.7 392.7 1481.3 379.3 1511 382.5C1540.7 385.7 1570.3 405.3 1585.2 415.2L1600 425L1600 501L1585.2 501C1570.3 501 1540.7 501 1511 501C1481.3 501 1451.7 501 1422 501C1392.3 501 1362.7 501 1333 501C1303.3 501 1273.7 501 1244.2 501C1214.7 501 1185.3 501 1155.8 501C1126.3 501 1096.7 501 1067 501C1037.3 501 1007.7 501 978 501C948.3 501 918.7 501 889 501C859.3 501 829.7 501 800 501C770.3 501 740.7 501 711 501C681.3 501 651.7 501 622 501C592.3 501 562.7 501 533 501C503.3 501 473.7 501 444.2 501C414.7 501 385.3 501 355.8 501C326.3 501 296.7 501 267 501C237.3 501 207.7 501 178 501C148.3 501 118.7 501 89 501C59.3 501 29.7 501 14.8 501L0 501Z" fill="#023c76"></path>
<path d="M0 468L14.8 462.5C29.7 457 59.3 446 89 439.2C118.7 432.3 148.3 429.7 178 435.8C207.7 442 237.3 457 267 456.7C296.7 456.3 326.3 440.7 355.8 441C385.3 441.3 414.7 457.7 444.2 454.5C473.7 451.3 503.3 428.7 533 419.3C562.7 410 592.3 414 622 422.7C651.7 431.3 681.3 444.7 711 450.7C740.7 456.7 770.3 455.3 800 456C829.7 456.7 859.3 459.3 889 461.8C918.7 464.3 948.3 466.7 978 467.5C1007.7 468.3 1037.3 467.7 1067 460.8C1096.7 454 1126.3 441 1155.8 432.2C1185.3 423.3 1214.7 418.7 1244.2 418.8C1273.7 419 1303.3 424 1333 424.5C1362.7 425 1392.3 421 1422 422.8C1451.7 424.7 1481.3 432.3 1511 438.8C1540.7 445.3 1570.3 450.7 1585.2 453.3L1600 456L1600 501L1585.2 501C1570.3 501 1540.7 501 1511 501C1481.3 501 1451.7 501 1422 501C1392.3 501 1362.7 501 1333 501C1303.3 501 1273.7 501 1244.2 501C1214.7 501 1185.3 501 1155.8 501C1126.3 501 1096.7 501 1067 501C1037.3 501 1007.7 501 978 501C948.3 501 918.7 501 889 501C859.3 501 829.7 501 800 501C770.3 501 740.7 501 711 501C681.3 501 651.7 501 622 501C592.3 501 562.7 501 533 501C503.3 501 473.7 501 444.2 501C414.7 501 385.3 501 355.8 501C326.3 501 296.7 501 267 501C237.3 501 207.7 501 178 501C148.3 501 118.7 501 89 501C59.3 501 29.7 501 14.8 501L0 501Z" fill="#052f5c"></path>
</svg>