<svg id="visual" viewBox="0 0 5000 500" width="5000" height="500" xmlns="http://www.w3.org/2000/svg" xmlns:xlink="http://www.w3.org/1999/xlink" version="1.1">
<path d="M0 376L69.5 366.5C139 357 278 338 416.8 322C555.7 306 694.3 293 833.2 280C972 267 1111 254 1250 271.7C1389 289.3 1528 337.7 1666.8 361.3C1805.7 385 1944.3 384 2083.2 382.5C2222 381 2361 379 2500 370.2C2639 361.3 2778 345.7 2916.8 322C3055.7 298.3 3194.3 266.7 3333.2 259.2C3472 251.7 3611 268.3 3750 279.7C3889 291 4028 297 4166.8 290.8C4305.7 284.7 4444.3 266.3 4583.2 262.8C4722 259.3 4861 270.7 4930.5 276.3L5000 282L5000 501L4930.5 501C4861 501 4722 501 4583.2 501C4444.3 501 4305.7 501 4166.8 501C4028 501 3889 501 3750 501C3611 501 3472 501 3333.2 501C3194.3 501 3055.7 501 2916.8 501C2778 501 2639 501 2500 501C2361 501 2222 501 2083.2 501C1944.3 501 1805.7 501 1666.8 501C1528 501 1389 501 1250 501C1111 501 972 501 833.2 501C694.3 501 555.7 501 416.8 501C278 501 139 501 69.5 501L0 501Z" fill="#66c2f5"></path>
<path d="M0 300L69.5 298.5C139 297 278 294 416.8 286C555.7 278 694.3 265 833.2 269.8C972 274.7 1111 297.3 1250 305C1389 312.7 1528 305.3 1666.8 293.7C1805.7 282 1944.3 266 2083.2 263.5C2222 261 2361 272 2500 287.5C2639 303 2778 323 2916.8 337.3C3055.7 351.7 3194.3 360.3 3333.2 365C3472 369.7 3611 370.3 3750 371.3C3889 372.3 4028 373.7 4166.8 377.3C4305.7 381 4444.3 387 4583.2 374.8C4722 362.7 4861 332.3 4930.5 317.2L5000 302L5000 501L4930.5 501C4861 501 4722 501 4583.2 501C4444.3 501 4305.7 501 4166.8 501C4028 501 3889 501 3750 501C3611 501 3472 501 3333.2 501C3194.3 501 3055.7 501 2916.8 501C2778 501 2639 501 2500 501C2361 501 2222 501 2083.2 501C1944.3 501 1805.7 501 1666.8 501C1528 501 1389 501 1250 501C1111 501 972 501 833.2 501C694.3 501 555.7 501 416.8 501C278 501 139 501 69.5 501L0 501Z" fill="#4fb3f0"></path>
<path d="M0 308L69.5 312.8C139 317.7 278 327.3 416.8 331.3C555.7 335.3 694.3 333.7 833.2 332.5C972 331.3 1111 330.7 1250 335.3C1389 340 1528 350 1666.8 347.7C1805.7 345.3 1944.3 330.7 2083.2 325.5C2222 320.3 2361 324.7 2500 338.2C2639 351.7 2778 374.3 2916.8 382.7C3055.7 391 3194.3 385 3333.2 381.5C3472 378 3611 377 3750 373.8C3889 370.7 4028 365.3 4166.8 357C4305.7 348.7 4444.3 337.3 4583.2 332C4722 326.7 4861 327.3 4930.5 327.7L5000 328L5000 501L4930.5 501C4861 501 4722 501 4583.2 501C4444.3 501 4305.7 501 4166.8 501C4028 501 3889 501 3750 501C3611 501 3472 501 3333.2 501C3194.3 501 3055.7 501 2916.8 501C2778 501 2639 501 2500 501C2361 501 2222 501 2083.2 501C1944.3 501 1805.7 501 1666.8 501C1528 501 1389 501 1250 501C1111 501 972 501 833.2 501C694.3 501 555.7 501 416.8 501C278 501 139 501 69.5 501L0 501Z" fill="#37a4ea"></path>
<path d="M0 355L69.5 349.7C139 344.3 278 333.7 416.8 337C555.7 340.3 694.3 357.7 833.2 362.2C972 366.7 1111 358.3 1250 349.8C1389 341.3 1528 332.7 1666.8 331.5C1805.7 330.3 1944.3 336.7 2083.2 347.5C2222 358.3 2361 373.7 2500 370.8C2639 368 2778 347 2916.8 338.3C3055.7 329.7 3194.3 333.3 3333.2 339.7C3472 346 3611 355 3750 352.3C3889 349.7 4028 335.3 4166.8 337.2C4305.7 339 4444.3 357 4583.2 364.2C4722 371.3 4861 367.7 4930.5 365.8L5000 364L5000 501L4930.5 501C4861 501 4722 501 4583.2 501C4444.3 501 4305.7 501 4166.8 501C4028 501 3889 501 3750 501C3611 501 3472 501 3333.2 501C3194.3 501 3055.7 501 2916.8 501C2778 501 2639 501 2500 501C2361 501 2222 501 2083.2 501C1944.3 501 1805.7 501 1666.8 501C1528 501 1389 501 1250 501C1111 501 972 501 833.2 501C694.3 501 555.7 501 416.8 501C278 501 139 501 69.5 501L0 501Z" fill="#1f94e4"></path>
<path d="M0 432L69.5 429.7C139 427.3 278 422.7 416.8 424.2C555.7 425.7 694.3 433.3 833.2 429.2C972 425 1111 409 1250 401.3C1389 393.7 1528 394.3 1666.8 402.3C1805.7 410.3 1944.3 425.7 2083.2 429C2222 432.3 2361 423.7 2500 424.7C2639 425.7 2778 436.3 2916.8 429.2C3055.7 422 3194.3 397 3333.2 387.2C3472 377.3 3611 382.7 3750 393C3889 403.3 4028 418.7 4166.8 416.5C4305.7 414.3 4444.3 394.7 4583.2 392.7C4722 390.7 4861 406.3 4930.5 414.2L5000 422L5000 501L4930.5 501C4861 501 4722 501 4583.2 501C4444.3 501 4305.7 501 4166.8 501C4028 501 3889 501 3750 501C3611 501 3472 501 3333.2 501C3194.3 501 3055.7 501 2916.8 501C2778 501 2639 501 2500 501C2361 501 2222 501 2083.2 501C1944.3 501 1805.7 501 1666.8 501C1528 501 1389 501 1250 501C1111 501 972 501 833.2 501C694.3 501 555.7 501 416.8 501C278 501 139 501 69.5 501L0 501Z" fill="#0384dd"></path>
<path d="M0 431L69.5 433.2C139 435.3 278 439.7 416.8 433.7C555.7 427.7 694.3 411.3 833.2 406.2C972 401 1111 407 1250 407.8C1389 408.7 1528 404.3 1666.8 411.5C1805.7 418.7 1944.3 437.3 2083.2 438.8C2222 440.3 2361 424.7 2500 422.3C2639 420 2778 431 2916.8 436.8C3055.7 442.7 3194.3 443.3 3333.2 439C3472 434.7 3611 425.3 3750 418.2C3889 411 4028 406 4166.8 405.3C4305.7 404.7 4444.3 408.3 4583.2 418.3C4722 428.3 4861 444.7 4930.5 452.8L5000 461L5000 501L4930.5 501C4861 501 4722 501 4583.2 501C4444.3 501 4305.7 501 4166.8 501C4028 501 3889 501 3750 501C3611 501 3472 501 3333.2 501C3194.3 501 3055.7 501 2916.8 501C2778 501 2639 501 2500 501C2361 501 2222 501 2083.2 501C1944.3 501 1805.7 501 1666.8 501C1528 501 1389 501 1250 501C1111 501 972 501 833.2 501C694.3 501 555.7 501 416.8 501C278 501 139 501 69.5 501L0 501Z" fill="#0074d4"></path>
<path d="M0 439L69.5 443.7C139 448.3 278 457.7 416.8 457.3C555.7 457 694.3 447 833.2 449.3C972 451.7 1111 466.3 1250 468.3C1389 470.3 1528 459.7 1666.8 454.5C1805.7 449.3 1944.3 449.7 2083.2 447.7C2222 445.7 2361 441.3 2500 443C2639 444.7 2778 452.3 2916.8 454.8C3055.7 457.3 3194.3 454.7 3333.2 455.8C3472 457 3611 462 3750 462.3C3889 462.7 4028 458.3 4166.8 453.5C4305.7 448.7 4444.3 443.3 4583.2 446.2C4722 449 4861 460 4930.5 465.5L5000 471L5000 501L4930.5 501C4861 501 4722 501 4583.2 501C4444.3 501 4305.7 501 4166.8 501C4028 501 3889 501 3750 501C3611 501 3472 501 3333.2 501C3194.3 501 3055.7 501 2916.8 501C2778 501 2639 501 2500 501C2361 501 2222 501 2083.2 501C1944.3 501 1805.7 501 1666.8 501C1528 501 1389 501 1250 501C1111 501 972 501 833.2 501C694.3 501 555.7 501 416.8 501C278 501 139 501 69.5 501L0 501Z" fill="#0563ca"></path>
</svg>