<svg id="visual" viewBox="0 0 5000 500" width="5000" height="500" xmlns="http://www.w3.org/2000/svg" xmlns:xlink="http://www.w3.org/1999/xlink" version="1.1">
<rect x="0" y="0" width="5000" height="500" fill="#052f5c"></rect>
<path d="M0 389L75.8 330C151.7 271 303.3 153 454.8 129C606.3 105 757.7 175 909.2 236C1060.7 297 1212.3 349 1363.8 366.5C1515.3 384 1666.7 367 1818.2 366.7C1969.7 366.3 2121.3 382.7 2272.8 328.2C2424.3 273.7 2575.7 148.3 2727.2 142.2C2878.7 136 3030.3 249 3181.8 276.2C3333.3 303.3 3484.7 244.7 3636.2 209.8C3787.7 175 3939.3 164 4090.8 194.5C4242.3 225 4393.7 297 4545.2 278C4696.7 259 4848.3 149 4924.2 94L5000 39L5000 501L4924.2 501C4848.3 501 4696.7 501 4545.2 501C4393.7 501 4242.3 501 4090.8 501C3939.3 501 3787.7 501 3636.2 501C3484.7 501 3333.3 501 3181.8 501C3030.3 501 2878.7 501 2727.2 501C2575.7 501 2424.3 501 2272.8 501C2121.3 501 1969.7 501 1818.2 501C1666.7 501 1515.3 501 1363.8 501C1212.3 501 1060.7 501 909.2 501C757.7 501 606.3 501 454.8 501C303.3 501 151.7 501 75.8 501L0 501Z" fill="#001d3b"></path>
<path d="M0 425L75.8 422.8C151.7 420.7 303.3 416.3 454.8 393.5C606.3 370.7 757.7 329.3 909.2 323.3C1060.7 317.3 1212.3 346.7 1363.8 334.3C1515.3 322 1666.7 268 1818.2 270C1969.7 272 2121.3 330 2272.8 318.7C2424.3 307.3 2575.7 226.7 2727.2 222.7C2878.7 218.7 3030.3 291.3 3181.8 333.7C3333.3 376 3484.7 388 3636.2 403.5C3787.7 419 3939.3 438 4090.8 433.7C4242.3 429.3 4393.7 401.7 4545.2 370.5C4696.7 339.3 4848.3 304.7 4924.2 287.3L5000 270L5000 501L4924.2 501C4848.3 501 4696.7 501 4545.2 501C4393.7 501 4242.3 501 4090.8 501C3939.3 501 3787.7 501 3636.2 501C3484.7 501 3333.3 501 3181.8 501C3030.3 501 2878.7 501 2727.2 501C2575.7 501 2424.3 501 2272.8 501C2121.3 501 1969.7 501 1818.2 501C1666.7 501 1515.3 501 1363.8 501C1212.3 501 1060.7 501 909.2 501C757.7 501 606.3 501 454.8 501C303.3 501 151.7 501 75.8 501L0 501Z" fill="#031527"></path>
<path d="M0 257L75.8 262.2C151.7 267.3 303.3 277.7 454.8 313.2C606.3 348.7 757.7 409.3 909.2 407.7C1060.7 406 1212.3 342 1363.8 320.8C1515.3 299.7 1666.7 321.3 1818.2 357.3C1969.7 393.3 2121.3 443.7 2272.8 456.2C2424.3 468.7 2575.7 443.3 2727.2 428.7C2878.7 414 3030.3 410 3181.8 420.8C3333.3 431.7 3484.7 457.3 3636.2 432.5C3787.7 407.7 3939.3 332.3 4090.8 296.5C4242.3 260.7 4393.7 264.3 4545.2 274.7C4696.7 285 4848.3 302 4924.2 310.5L5000 319L5000 501L4924.2 501C4848.3 501 4696.7 501 4545.2 501C4393.7 501 4242.3 501 4090.8 501C3939.3 501 3787.7 501 3636.2 501C3484.7 501 3333.3 501 3181.8 501C3030.3 501 2878.7 501 2727.2 501C2575.7 501 2424.3 501 2272.8 501C2121.3 501 1969.7 501 1818.2 501C1666.7 501 1515.3 501 1363.8 501C1212.3 501 1060.7 501 909.2 501C757.7 501 606.3 501 454.8 501C303.3 501 151.7 501 75.8 501L0 501Z" fill="#000a14"></path>
</svg>